<?xml version="1.0" encoding="utf-8"?>
<!-- Generator: Adobe Illustrator 16.0.0, SVG Export Plug-In . SVG Version: 6.00 Build 0)  -->
<!DOCTYPE svg PUBLIC "-//W3C//DTD SVG 1.1//EN" "http://www.w3.org/Graphics/SVG/1.1/DTD/svg11.dtd">
<svg version="1.1" id="Layer_1" xmlns="http://www.w3.org/2000/svg" xmlns:xlink="http://www.w3.org/1999/xlink" x="0px" y="0px"
	 width="428.563px" height="428.747px" viewBox="0 0 428.563 428.747" enable-background="new 0 0 428.563 428.747"
	 xml:space="preserve">
<g>
	<defs>
		<rect id="SVGID_1_" width="428.563" height="428.747"/>
	</defs>
	<clipPath id="SVGID_2_">
		<use xlink:href="#SVGID_1_"  overflow="visible"/>
	</clipPath>
	<path clip-path="url(#SVGID_2_)" fill="#FFFFFF" d="M93.933,149.248c17.639,8.786,34.579,19.092,50.065,31.305
		c18.444,14.558,34.818,32.222,45.767,53.15c-2.433,10.488-5.757,20.81-10.495,30.499c-3.855,7.785-8.689,15.18-14.931,21.273
		c-5.614,5.365-12.411,9.726-20.05,11.463c-7.817,1.888-16.19,0.857-23.487-2.446c-8.593-3.841-15.757-10.377-21.316-17.895
		c-6.94-9.383-11.534-20.326-14.431-31.585c-3.819-15.099-4.533-30.871-2.983-46.332C83.74,181.761,87.947,165.143,93.933,149.248"
		/>
	<path clip-path="url(#SVGID_2_)" fill="#FFFFFF" d="M281.863,190.399c18.205-16.501,39.214-29.622,61.08-40.703
		c8.179,21.769,13.136,44.966,12.59,68.295c-0.51,18.521-4.65,37.302-14.237,53.313c-4.891,8.067-11.274,15.39-19.271,20.494
		c-6.588,4.223-14.37,6.838-22.248,6.563c-8.807-0.112-17.236-3.921-23.946-9.476c-6.318-5.159-11.301-11.773-15.349-18.811
		c-6.344-11.153-10.454-23.421-13.361-35.874C255.843,217.594,267.983,202.954,281.863,190.399"/>
</g>
<g>
	<defs>
		<rect id="SVGID_3_" width="428.563" height="428.747"/>
	</defs>
	<clipPath id="SVGID_4_">
		<use xlink:href="#SVGID_3_"  overflow="visible"/>
	</clipPath>
	<path clip-path="url(#SVGID_4_)" fill="#C70000" d="M150.01,35.242c21.122-7.924,43.625-11.953,66.159-12.422
		c0.087,12.865,0.372,25.726,0.398,38.591c-7.527,7.094-16.996,12.555-27.389,13.81c-8.419,1.07-16.935-0.775-24.711-3.962
		C159.643,59.255,154.844,47.241,150.01,35.242"/>
	<path clip-path="url(#SVGID_4_)" fill="#C70000" d="M220.248,22.948c22.233,0.382,44.359,4.681,65.221,12.351
		c-4.492,12.049-9.012,24.088-13.503,36.138c-8.894,3.514-18.73,5.324-28.22,3.458c-8.368-1.592-15.997-5.977-22.269-11.637
		c-0.913-0.647-0.786-1.831-0.852-2.815C220.62,47.945,220.355,35.447,220.248,22.948"/>
	<path clip-path="url(#SVGID_4_)" fill="#C70000" d="M89.568,71.31c16.71-14.655,35.915-26.44,56.511-34.792
		c4.793,11.942,9.596,23.879,14.374,35.827c-4.523,9.077-11.07,17.522-20.116,22.427c-7.175,4.064-15.497,5.487-23.656,5.609
		c-2.504-2.626-4.936-5.319-7.45-7.934c-0.495-0.587-1.127-1.127-1.341-1.887c-0.194-6.609,1.876-13.024,4.589-18.97
		c-3.967,3.85-7.904,7.736-11.626,11.831C97.094,79.382,93.285,75.39,89.568,71.31"/>
	<path clip-path="url(#SVGID_4_)" fill="#C70000" d="M289.257,36.91c20.066,8.016,38.688,19.53,55.099,33.563
		c0.678,0.653,1.193,1.459,1.749,2.219c-3.36,3.733-6.645,7.531-10.025,11.249c-3.789-4.013-7.567-8.052-11.651-11.769
		c2.892,6.18,4.88,12.916,4.568,19.801c-2.866,2.932-5.318,6.292-8.327,9.071c-9.77,0.265-19.847-1.948-28.098-7.353
		c-7.536-4.931-13.135-12.376-16.873-20.494C280.236,61.106,284.766,49.015,289.257,36.91"/>
	<path clip-path="url(#SVGID_4_)" fill="#C70000" d="M195.716,78.086c7.75-2.019,14.813-6.124,20.963-11.188
		c0.097,14.85,0.306,29.709,0.316,44.548c-3.304,2.744-7.231,4.737-11.229,6.282c-7.195,2.733-15.216,2.754-22.579,0.694
		c-5.528-13.998-11.091-27.985-16.655-41.968C175.839,79.733,186.114,80.657,195.716,78.086"/>
	<path clip-path="url(#SVGID_4_)" fill="#C70000" d="M220.758,68.102c7.317,6.058,16.268,10.311,25.777,11.311
		c7.919,0.912,15.946-0.388,23.482-2.846c-5.222,13.947-10.494,27.868-15.792,41.784c-7.374,1.978-15.354,2.442-22.688,0.025
		c-3.737-1.163-7.246-3.003-10.423-5.283C221.049,98.096,220.911,83.099,220.758,68.102"/>
	<path clip-path="url(#SVGID_4_)" fill="#C70000" d="M46.632,126.815c10.204-19.627,23.865-37.429,39.958-52.594
		c3.82,4.105,7.649,8.205,11.489,12.289c-13.125,14.808-24.257,31.458-32.335,49.545C59.37,132.985,52.981,129.937,46.632,126.815"
		/>
	<path clip-path="url(#SVGID_4_)" fill="#C70000" d="M338.879,87.056c3.411-3.834,6.812-7.669,10.224-11.499
		c15.64,14.87,28.495,32.559,38.521,51.636c-5.594,2.911-11.203,5.803-16.838,8.633C362.81,118.014,351.739,101.696,338.879,87.056"
		/>
	<path clip-path="url(#SVGID_4_)" fill="#C70000" d="M146.416,95.781c6.751-4.712,12.044-11.249,16.062-18.383
		c5.498,13.84,11,27.679,16.472,41.529c-4.437,6.909-10.592,12.962-18.338,15.991c-3.064,1.27-6.323,1.989-9.596,2.473
		c-10.281-10.973-20.382-22.12-30.729-33.038C129.537,103.843,138.817,101.208,146.416,95.781"/>
	<path clip-path="url(#SVGID_4_)" fill="#C70000" d="M273.685,78.566c4.481,8.031,10.692,15.272,18.771,19.841
		c7.465,4.37,16.104,6.344,24.686,6.777c-9.883,11.148-19.867,22.193-29.806,33.284c-7.496-0.821-14.987-3.234-20.933-7.991
		c-3.426-2.723-6.298-6.089-8.648-9.77C263.098,106.673,268.396,92.62,273.685,78.566"/>
	<path clip-path="url(#SVGID_4_)" fill="#C70000" d="M108.792,98.106c1.352,1.397,2.831,2.703,3.967,4.289
		c0.235,1.56-0.239,3.146-0.433,4.691C110.721,104.282,109.628,101.218,108.792,98.106"/>
	<path clip-path="url(#SVGID_4_)" fill="#C70000" d="M321.664,106.352c2.08-2.29,4.104-4.635,6.2-6.91
		c-1.157,4.177-3.004,8.149-5.416,11.749C322.147,109.585,321.888,107.969,321.664,106.352"/>
	<path clip-path="url(#SVGID_4_)" fill="#C70000" d="M115.544,112.41c0.387-1.989,0.744-3.983,1.086-5.981
		c10.153,10.902,20.275,21.835,30.376,32.783c-0.29,1.203-0.581,2.412-0.877,3.615c-3.513-3.829-7.052-7.639-10.627-11.412
		c-1.642-1.77-3.697-3.065-5.583-4.548C124.544,122.68,119.624,117.876,115.544,112.41"/>
	<path clip-path="url(#SVGID_4_)" fill="#C70000" d="M288.202,143.653c10.015-11.045,19.934-22.177,29.882-33.278
		c0.402,1.714,0.806,3.427,1.244,5.135c-4.386,5.329-9.598,9.944-15.176,13.988c-2.178,1.56-3.859,3.661-5.711,5.563
		c-3.269,3.447-6.456,6.966-9.684,10.448C288.62,145.045,288.345,144.118,288.202,143.653"/>
	<path clip-path="url(#SVGID_4_)" fill="#C70000" d="M206.292,121.895c3.819-1.249,7.384-3.146,10.775-5.288
		c-0.112,11.785,0.214,23.559,0.117,35.344c-3.549,2.284-7.373,4.436-11.667,4.808c-2.56,0.265-5.14-0.031-7.629-0.632
		c-4.242-11.03-8.531-22.039-12.875-33.023C192.049,124.521,199.479,124.236,206.292,121.895"/>
	<path clip-path="url(#SVGID_4_)" fill="#C70000" d="M221.131,118.116c9.244,5.813,20.733,7.256,31.314,4.921
		c-4.187,10.994-8.424,21.968-12.662,32.941c-6.17,1.744-13.109,1.336-18.52-2.335C221.34,141.797,221.182,129.962,221.131,118.116"
		/>
	<path clip-path="url(#SVGID_4_)" fill="#C70000" d="M154.33,141.038c10.739-1.928,20.265-8.546,26.455-17.445
		c4.299,10.964,8.587,21.932,12.84,32.916c-2.31,3.3-5.012,6.461-8.592,8.414c-2.065,1.188-4.386,1.805-6.685,2.336
		C170.367,158.498,162.36,149.753,154.33,141.038"/>
	<path clip-path="url(#SVGID_4_)" fill="#C70000" d="M255.938,125.454c4.304,5.875,10.091,10.693,16.828,13.518
		c3.528,1.561,7.297,2.463,11.064,3.223c-7.685,8.873-15.751,17.414-23.578,26.159c-6.527-0.683-13.156-3.666-16.681-9.423
		c-0.423-0.49-0.046-1.091,0.092-1.601C247.815,146.729,251.885,136.091,255.938,125.454"/>
	<path clip-path="url(#SVGID_4_)" fill="#C70000" d="M26.587,193.056c2.549-21.652,8.791-42.839,18.174-62.513
		c6.461,3.091,12.911,6.191,19.342,9.332c-7.283,17.496-11.693,36.251-12.423,55.211C43.317,194.392,34.95,193.739,26.587,193.056"
		/>
	<path clip-path="url(#SVGID_4_)" fill="#C70000" d="M372.483,139.595c5.67-2.81,11.265-5.777,16.909-8.638
		c9.556,20.091,15.599,41.809,18.041,63.909c-7.368,0.745-14.731,1.586-22.105,2.3C384.65,177.391,380.152,157.819,372.483,139.595"
		/>
	<path clip-path="url(#SVGID_4_)" fill="#C70000" d="M150.393,142.874c7.975,8.653,15.899,17.363,23.87,26.021
		c-0.449,1.775-0.959,3.524-1.545,5.253c-7.466-9.51-15.263-18.76-23.36-27.74C149.709,145.229,150.046,144.047,150.393,142.874"/>
	<path clip-path="url(#SVGID_4_)" fill="#C70000" d="M261.094,173.566c7.986-8.776,15.986-17.536,23.921-26.363
		c0.199,0.627,0.398,1.254,0.602,1.886c-8.021,8.924-15.7,18.159-23.028,27.659C262.083,175.688,261.584,174.627,261.094,173.566"/>
	<path clip-path="url(#SVGID_4_)" fill="#C70000" d="M199.657,160.747c6.053,0.856,12.249-0.612,17.419-3.825
		c-0.041,11.969,0.067,23.952-0.703,35.905c-1.454,0.968-3.162,1.29-4.855,0.831C208.178,182.48,203.757,171.66,199.657,160.747"/>
	<path clip-path="url(#SVGID_4_)" fill="#C70000" d="M221.289,158.447c5.114,2.651,11.039,3.1,16.664,2.203
		c-4.467,11.157-8.639,22.452-13.753,33.334c-1.29,0.041-2.575-0.046-3.835-0.301C221.354,181.96,220.927,170.185,221.289,158.447"
		/>
	<path clip-path="url(#SVGID_4_)" fill="#C70000" d="M181.494,170.777c5.589-1.463,10.362-5.054,13.87-9.566
		c3.932,9.974,7.72,20.009,11.193,30.152c0.377,1.193,0.857,2.381,0.979,3.641c-0.612,1.178-1.856,1.764-2.973,2.361
		C197.418,188.048,189.301,179.532,181.494,170.777"/>
	<path clip-path="url(#SVGID_4_)" fill="#C70000" d="M241.4,163.087c3.794,4.789,9.434,7.634,15.308,8.97
		c-6.415,7.277-13.114,14.298-19.811,21.315c-1.555,1.657-3.223,3.197-4.88,4.742c-1.647-0.372-3.064-1.27-3.988-2.692
		C233.053,184.892,237.111,173.928,241.4,163.087"/>
	<path clip-path="url(#SVGID_4_)" fill="#C70000" d="M177.587,172.603c7.991,8.959,16.211,17.735,23.691,27.128
		c-0.443,1.132-1.04,2.193-1.774,3.157c-2.988-1.964-6.15-3.641-9.312-5.293c-0.881-0.434-1.667-1.046-2.156-1.908
		c-3.896-6.119-8.144-12.003-12.489-17.812C176.333,176.157,177.001,174.393,177.587,172.603"/>
	<path clip-path="url(#SVGID_4_)" fill="#C70000" d="M250.972,184.52c2.356-2.544,4.717-5.089,7.058-7.649
		c0.611,1.142,1.244,2.279,1.887,3.411c-3.911,5.288-7.71,10.668-11.254,16.216c-0.495,0.882-1.321,1.479-2.233,1.872
		c-3.605,1.652-7.19,3.37-10.903,4.788c-0.57-0.418-1.146-0.836-1.713-1.249C240.019,196.616,245.343,190.398,250.972,184.52"/>
	<path clip-path="url(#SVGID_4_)" fill="#C70000" d="M26.271,197.232c8.429,0.484,16.833,1.311,25.252,1.943
		c-0.327,19.352,3.029,38.775,10.015,56.832c-9.628,2.86-19.255,5.716-28.872,8.603C26.659,242.738,24.645,219.837,26.271,197.232"
		/>
	<path clip-path="url(#SVGID_4_)" fill="#C70000" d="M210.774,197.737c2.396,0.53,4.865,0.229,7.047-0.908
		c2.11,1.224,4.554,1.494,6.945,1.209c1.106,1.489,2.544,2.672,4.187,3.529c0.79,1.881,2.055,3.513,3.707,4.722
		c-0.081,2.463,0.643,4.839,2.064,6.848c-1.569,2.233-1.626,4.977-1.708,7.598c-1.682-0.836-3.028-2.152-4.217-3.575
		c0.403,2.626,0.862,5.237,1.271,7.864c-1.103,1.004-2.102,2.109-2.984,3.313c-2.452,0.408-4.599,1.688-6.343,3.421
		c-2.143-0.835-4.451-0.896-6.686-0.418c-1.81-1.371-3.962-2.126-6.216-2.294c-0.48-0.74-0.964-1.469-1.453-2.188
		c0.601-3.392,1.188-6.787,1.693-10.193c-1.377,1.382-2.637,3.156-4.636,3.631c-1.422,0.315-2.391-0.985-3.37-1.76
		c0.54-2.152,0.505-4.38-0.138-6.496c0.816-1.688,1.229-3.529,1.27-5.401c1.871-1.249,3.11-3.146,3.87-5.232
		C207.357,200.883,209.316,199.547,210.774,197.737"/>
	<path clip-path="url(#SVGID_4_)" fill="#C70000" d="M385.339,201.312c7.338-0.78,14.676-1.545,22.009-2.32
		c1.851,22.631-0.307,45.567-6.195,67.494c-8.965-2.396-17.92-4.844-26.874-7.271C381.77,240.907,385.563,221.092,385.339,201.312"
		/>
	<path clip-path="url(#SVGID_4_)" fill="#C70000" d="M193.125,203.825c1.341,0.775,2.672,1.571,3.988,2.392
		c-0.077,0.953-0.163,1.902-0.276,2.856C194.844,207.986,194.278,205.61,193.125,203.825"/>
	<path clip-path="url(#SVGID_4_)" fill="#C70000" d="M236.719,207.018c2.488-0.811,4.865-1.907,7.251-2.958
		c-1.265,2.193-2.533,4.391-3.691,6.645c-0.714,0.025-1.434,0.051-2.143,0.076C237.407,209.634,236.903,208.37,236.719,207.018"/>
	<path clip-path="url(#SVGID_4_)" fill="#C70000" d="M237.597,214.56c0.296,0.097,0.887,0.291,1.188,0.382
		c-0.515,1.127-1.065,2.239-1.703,3.301c0.275-0.857,0.576-1.709,0.893-2.551C237.841,215.31,237.719,214.932,237.597,214.56"/>
	<path clip-path="url(#SVGID_4_)" fill="#C70000" d="M231.665,233.463c-0.556-1.056-1.585-2.265-0.703-3.433
		C231.232,231.163,231.462,232.306,231.665,233.463"/>
	<path clip-path="url(#SVGID_4_)" fill="#C70000" d="M224.235,235.319c-0.418-1.494,1.397-1.999,2.265-2.811
		c2.392,4.697,5.048,9.255,7.771,13.769c1.025,1.651,1.388,3.59,1.917,5.44c1.148,4.064,2.463,8.078,3.88,12.061
		c-3.731,1.274-7.153,3.335-10.096,5.956C227.954,258.281,225.664,246.864,224.235,235.319"/>
	<path clip-path="url(#SVGID_4_)" fill="#C70000" d="M203.722,239.495c0.469-2.417,2.075-4.421,3.717-6.175
		c1.163-0.163,2.275,0.306,3.371,0.627c-3.162,11.32-5.044,22.947-7.353,34.456c-2.183-1.581-4.589-2.82-7.124-3.733
		C199.285,256.436,201.814,248.041,203.722,239.495"/>
	<path clip-path="url(#SVGID_4_)" fill="#C70000" d="M219.279,235.65c0.199-0.255,0.607-0.765,0.811-1.015
		c1.285,12.096,3.784,24.022,5.869,35.996c-6.012-2.352-12.804-2.09-18.785,0.225c2.233-11.362,4.227-22.784,7.052-34.018
		C214.578,234.492,217.673,235.019,219.279,235.65"/>
	<path clip-path="url(#SVGID_4_)" fill="#C70000" d="M33.354,268.715c9.903-2.999,19.831-5.92,29.75-8.878
		c7.052,16.603,17.301,32.054,30.978,43.931c-10.449,8.087-20.902,16.17-31.351,24.257C49.671,310.101,39.86,289.897,33.354,268.715
		"/>
	<path clip-path="url(#SVGID_4_)" fill="#C70000" d="M340.338,306.337c14.155-11.474,24.854-26.775,32.299-43.313
		c9.081,2.498,18.188,4.931,27.275,7.419c-6.46,20.836-16.517,40.509-29.336,58.146
		C360.475,321.207,350.413,313.762,340.338,306.337"/>
	<path clip-path="url(#SVGID_4_)" fill="#C70000" d="M230.886,274.701c2.932-3.137,6.497-5.742,10.622-7.053
		c4.166,10.749,9.433,21.152,16.491,30.315c-7.792,1.678-14.824,5.885-20.562,11.341
		C235.235,297.776,233.043,286.241,230.886,274.701"/>
	<path clip-path="url(#SVGID_4_)" fill="#C70000" d="M194.869,268.516c2.84,1.01,5.482,2.528,7.7,4.58
		c-2.228,11.609-4.34,23.252-6.45,34.889c-5.161-4.584-11.464-7.817-18.21-9.291C185.175,289.647,190.535,279.234,194.869,268.516"
		/>
	<path clip-path="url(#SVGID_4_)" fill="#C70000" d="M206.21,275.787c4.064-1.882,8.542-3.187,13.064-2.601
		c2.688,0.26,5.217,1.29,7.608,2.494c2.162,11.56,4.35,23.119,6.573,34.675c-7.002-3.029-14.819-4.237-22.381-3.061
		c-3.87,0.557-7.618,1.729-11.239,3.172C201.921,298.902,204.099,287.353,206.21,275.787"/>
	<path clip-path="url(#SVGID_4_)" fill="#C70000" d="M238.402,314.276c5.95-6.43,13.763-11.407,22.538-12.691
		c4.004,4.396,8.332,8.566,13.376,11.764c1.122,0.724,2.387,1.362,3.091,2.56c4.87,7.771,9.795,15.518,14.686,23.278
		c-9.036-0.984-18.424,0.123-26.659,4.115c-7.221,3.387-13.381,8.71-18.46,14.798C244.083,343.501,241.227,328.892,238.402,314.276"
		/>
	<path clip-path="url(#SVGID_4_)" fill="#C70000" d="M156.028,316.505c7.195-3.325,13.493-8.388,18.806-14.231
		c7.736,1.178,14.966,4.986,20.397,10.601c-2.682,14.737-5.298,29.49-7.898,44.242c-5.207-6.073-11.693-11.143-19.154-14.125
		c-8.643-3.524-18.245-4.126-27.423-2.835c4.349-7.256,8.786-14.462,13.14-21.713C154.355,317.555,155.09,316.867,156.028,316.505"
		/>
	<path clip-path="url(#SVGID_4_)" fill="#C70000" d="M65.556,331.095c10.188-7.899,20.356-15.823,30.596-23.656
		c1.698,0.357,3.503,0.617,4.926,1.703c5.849,4.126,12.299,7.451,19.158,9.536c1.81,0.464,2.988,1.999,4.192,3.31
		c5.084,5.624,8.505,12.605,10.479,19.897c-6.9,11.274-13.697,22.615-20.495,33.957C95.744,363.838,79.243,348.55,65.556,331.095"/>
	<path clip-path="url(#SVGID_4_)" fill="#C70000" d="M313.173,320.11c8.604-1.963,16.573-6.094,23.732-11.173
		c10.438,7.72,20.897,15.41,31.355,23.105c-13.498,17.036-29.953,31.651-48.188,43.445c-6.935-10.846-13.829-21.718-20.723-32.589
		c2.248-7.889,5.792-15.563,11.36-21.672C311.307,320.478,312.312,320.365,313.173,320.11"/>
	<path clip-path="url(#SVGID_4_)" fill="#C70000" d="M198.949,315.394c6.145-2.892,12.906-4.81,19.754-4.421
		c5.513,0.219,10.856,1.947,15.746,4.441c2.831,14.803,5.758,29.591,8.67,44.384c-8.822-5.293-19.179-8.394-29.516-7.517
		c-7.934,0.551-15.558,3.3-22.493,7.094C193.671,344.704,196.297,330.049,198.949,315.394"/>
	<path clip-path="url(#SVGID_4_)" fill="#C70000" d="M283.853,318.361c6.786,2.602,14.119,3.625,21.365,3.069
		c-3.89,5.059-6.73,10.852-8.78,16.874C292.241,331.654,288.003,325.036,283.853,318.361"/>
	<path clip-path="url(#SVGID_4_)" fill="#C70000" d="M128.649,320.595c6.624,0.867,13.417,0.521,19.872-1.244
		c-3.564,5.91-7.185,11.789-10.719,17.721C135.655,331.135,132.713,325.454,128.649,320.595"/>
	<path clip-path="url(#SVGID_4_)" fill="#C70000" d="M269.631,345.908c8.021-3.26,16.979-3.656,25.439-2.102
		c7.139,11.417,14.421,22.753,21.643,34.125c-18.898,11.121-39.679,18.976-61.151,23.38c-2.52-12.614-5.033-25.231-7.542-37.853
		C253.653,355.994,260.823,349.365,269.631,345.908"/>
	<path clip-path="url(#SVGID_4_)" fill="#C70000" d="M137.945,344.802c8.822-1.72,18.159-1.795,26.715,1.219
		c8.338,2.809,15.416,8.546,20.821,15.395c0.341,0.546,0.994,1.101,0.755,1.83c-2.239,12.887-4.523,25.767-6.747,38.658
		c-21.662-4.473-42.492-12.748-61.487-24.054C124.646,366.83,131.265,355.796,137.945,344.802"/>
	<path clip-path="url(#SVGID_4_)" fill="#C70000" d="M190.127,364.801c7.812-4.911,16.751-8.435,26.073-8.603
		c8.806-0.225,17.46,2.682,24.899,7.267c0.928,0.597,1.933,1.107,3.05,1.229c2.346,12.671,5.022,25.281,7.501,37.933
		c-22.479,4.049-45.625,3.943-68.132,0.195C185.68,390.139,187.929,377.473,190.127,364.801"/>
</g>
<g>
	<defs>
		<rect id="SVGID_5_" width="428.563" height="428.747"/>
	</defs>
	<clipPath id="SVGID_6_">
		<use xlink:href="#SVGID_5_"  overflow="visible"/>
	</clipPath>
	<path clip-path="url(#SVGID_6_)" d="M165.395,17.405c35.981-9.352,74.516-8.72,110.145,1.917
		c33.024,9.791,63.323,28.347,87.295,53.048c23.528,24.074,40.988,54.058,50.056,86.49c11.708,41.682,9.867,87.107-5.477,127.615
		c-10.332,27.431-26.792,52.503-47.725,73.014c-22.83,22.609-51.125,39.677-81.818,49.218c-18.266,5.741-37.354,8.695-56.48,9.204
		h-8.863c-15.288-0.454-30.56-2.366-45.394-6.134c-33.645-8.364-64.935-25.732-90.028-49.627
		c-25.191-23.824-44.252-54.141-54.446-87.306c-10.994-35.532-11.993-74.068-3.029-110.156c4.855-19.499,12.657-38.26,23.064-55.449
		c16.89-27.909,40.54-51.692,68.362-68.724C127.9,30.194,146.273,22.372,165.395,17.405 M150.01,35.242
		c4.835,11.999,9.633,24.013,14.457,36.017c7.777,3.187,16.292,5.033,24.711,3.962c10.393-1.254,19.862-6.716,27.389-13.809
		c-0.026-12.865-0.312-25.726-0.398-38.591C193.635,23.29,171.132,27.318,150.01,35.242 M220.249,22.948
		c0.107,12.499,0.372,24.997,0.377,37.495c0.066,0.984-0.062,2.168,0.852,2.815c6.272,5.66,13.9,10.045,22.269,11.637
		c9.49,1.866,19.326,0.056,28.22-3.458c4.492-12.05,9.01-24.089,13.503-36.138C264.607,27.629,242.481,23.33,220.249,22.948
		 M89.568,71.31c3.718,4.079,7.527,8.072,11.285,12.111c3.723-4.095,7.659-7.981,11.627-11.831
		c-2.713,5.946-4.784,12.361-4.59,18.97c0.215,0.76,0.847,1.3,1.341,1.887c2.514,2.615,4.947,5.308,7.45,7.934
		c8.159-0.122,16.481-1.545,23.656-5.609c9.046-4.906,15.594-13.35,20.117-22.427c-4.778-11.948-9.582-23.885-14.375-35.828
		C125.483,44.87,106.279,56.655,89.568,71.31 M289.257,36.91c-4.492,12.105-9.02,24.196-13.559,36.287
		c3.737,8.118,9.337,15.562,16.874,20.494c8.251,5.405,18.327,7.618,28.097,7.353c3.009-2.779,5.461-6.139,8.328-9.072
		c0.311-6.884-1.678-13.62-4.57-19.8c4.085,3.717,7.864,7.755,11.652,11.769c3.381-3.718,6.665-7.516,10.026-11.249
		c-0.557-0.76-1.072-1.566-1.749-2.219C327.946,56.44,309.323,44.926,289.257,36.91 M195.716,78.087
		c-9.602,2.57-19.878,1.647-29.184-1.632c5.564,13.982,11.127,27.97,16.655,41.968c7.363,2.06,15.384,2.039,22.579-0.694
		c3.998-1.545,7.925-3.539,11.229-6.282c-0.01-14.839-0.219-29.699-0.316-44.548C210.529,71.963,203.466,76.068,195.716,78.087
		 M220.758,68.102c0.153,14.997,0.291,29.994,0.357,44.991c3.177,2.28,6.685,4.121,10.423,5.284
		c7.333,2.417,15.313,1.952,22.687-0.026c5.299-13.916,10.571-27.837,15.793-41.784c-7.536,2.458-15.563,3.758-23.482,2.846
		C237.025,78.413,228.076,74.16,220.758,68.102 M46.632,126.816c6.349,3.121,12.738,6.17,19.112,9.24
		c8.078-18.088,19.21-34.737,32.335-49.545c-3.84-4.085-7.669-8.185-11.489-12.29C70.497,89.387,56.836,107.189,46.632,126.816
		 M338.879,87.056c12.86,14.641,23.931,30.958,31.906,48.77c5.635-2.83,11.244-5.721,16.838-8.633
		c-10.025-19.077-22.881-36.766-38.521-51.636C345.691,79.387,342.29,83.222,338.879,87.056 M146.416,95.781
		c-7.599,5.426-16.879,8.062-26.129,8.572c10.346,10.918,20.448,22.065,30.728,33.039c3.274-0.485,6.532-1.204,9.597-2.473
		c7.746-3.029,13.901-9.082,18.337-15.992c-5.471-13.85-10.974-27.689-16.471-41.529C158.46,84.532,153.167,91.07,146.416,95.781
		 M273.684,78.566c-5.287,14.054-10.586,28.108-15.93,42.141c2.352,3.681,5.222,7.047,8.648,9.77
		c5.945,4.758,13.437,7.17,20.933,7.991c9.938-11.091,19.923-22.136,29.806-33.284c-8.583-0.433-17.221-2.406-24.686-6.777
		C284.377,93.839,278.167,86.597,273.684,78.566 M108.793,98.107c0.836,3.111,1.927,6.175,3.534,8.98
		c0.194-1.545,0.668-3.131,0.433-4.692C111.623,100.809,110.144,99.504,108.793,98.107 M321.664,106.352
		c0.224,1.617,0.484,3.233,0.785,4.84c2.412-3.6,4.258-7.573,5.415-11.749C325.769,101.717,323.744,104.063,321.664,106.352
		 M115.544,112.41c4.08,5.467,9,10.27,14.375,14.457c1.887,1.484,3.942,2.779,5.584,4.548c3.575,3.774,7.113,7.583,10.627,11.413
		c0.296-1.204,0.586-2.412,0.877-3.616c-10.102-10.948-20.224-21.881-30.377-32.783C116.289,108.427,115.932,110.422,115.544,112.41
		 M288.202,143.654c0.143,0.464,0.418,1.392,0.556,1.856c3.228-3.483,6.414-7.001,9.684-10.449c1.852-1.902,3.533-4.003,5.711-5.563
		c5.579-4.044,10.791-8.658,15.176-13.988c-0.438-1.708-0.841-3.421-1.244-5.134C308.135,121.477,298.217,132.609,288.202,143.654
		 M206.292,121.895c-6.813,2.341-14.243,2.626-21.28,1.209c4.345,10.984,8.634,21.993,12.876,33.023
		c2.489,0.601,5.069,0.897,7.629,0.632c4.293-0.372,8.118-2.524,11.667-4.809c0.098-11.784-0.229-23.559-0.117-35.343
		C213.675,118.749,210.111,120.646,206.292,121.895 M221.13,118.116c0.052,11.846,0.21,23.682,0.133,35.527
		c5.41,3.672,12.352,4.08,18.521,2.336c4.238-10.974,8.475-21.948,12.661-32.942C241.864,125.373,230.376,123.929,221.13,118.116
		 M154.33,141.038c8.031,8.715,16.037,17.46,24.017,26.221c2.3-0.531,4.62-1.148,6.686-2.336c3.579-1.953,6.282-5.115,8.592-8.414
		c-4.253-10.984-8.541-21.953-12.84-32.916C174.594,132.491,165.069,139.11,154.33,141.038 M255.939,125.454
		c-4.055,10.638-8.124,21.275-12.274,31.876c-0.138,0.51-0.516,1.112-0.092,1.601c3.522,5.757,10.152,8.741,16.679,9.424
		c7.828-8.745,15.895-17.287,23.58-26.159c-3.768-0.76-7.537-1.663-11.066-3.224C266.03,136.148,260.242,131.329,255.939,125.454
		 M26.587,193.056c8.363,0.683,16.73,1.336,25.093,2.03c0.73-18.96,5.14-37.715,12.423-55.211
		c-6.431-3.141-12.881-6.241-19.342-9.332C35.378,150.217,29.136,171.404,26.587,193.056 M372.483,139.594
		c7.669,18.226,12.167,37.797,12.845,57.572c7.374-0.714,14.737-1.555,22.105-2.3c-2.442-22.1-8.485-43.818-18.041-63.91
		C383.748,133.817,378.153,136.785,372.483,139.594 M150.393,142.874c-0.347,1.173-0.683,2.355-1.035,3.533
		c8.098,8.98,15.894,18.23,23.36,27.741c0.586-1.729,1.096-3.478,1.545-5.253C166.293,160.237,158.368,151.527,150.393,142.874
		 M261.094,173.566c0.49,1.061,0.989,2.122,1.494,3.182c7.328-9.5,15.007-18.735,23.029-27.658c-0.204-0.633-0.403-1.26-0.603-1.887
		C277.08,156.03,269.08,164.79,261.094,173.566 M93.933,149.248c-5.986,15.894-10.193,32.513-11.861,49.432
		c-1.55,15.461-0.836,31.234,2.983,46.333c2.897,11.26,7.491,22.202,14.431,31.585c5.559,7.517,12.724,14.055,21.316,17.894
		c7.297,3.305,15.67,4.335,23.487,2.448c7.639-1.739,14.436-6.099,20.05-11.464c6.242-6.094,11.076-13.487,14.932-21.274
		c4.737-9.688,8.062-20.009,10.494-30.499c-10.949-20.927-27.323-38.591-45.766-53.15
		C128.512,168.34,111.572,158.034,93.933,149.248 M281.863,190.399c-13.88,12.555-26.021,27.195-34.741,43.803
		c2.906,12.453,7.016,24.722,13.36,35.874c4.049,7.037,9.03,13.65,15.349,18.811c6.711,5.555,15.14,9.363,23.946,9.476
		c7.879,0.274,15.66-2.342,22.248-6.563c7.997-5.104,14.381-12.427,19.271-20.494c9.587-16.012,13.728-34.793,14.237-53.313
		c0.546-23.329-4.411-46.525-12.59-68.294C321.077,160.777,300.068,173.898,281.863,190.399 M199.657,160.747
		c4.1,10.912,8.521,21.733,11.862,32.91c1.692,0.459,3.4,0.138,4.854-0.831c0.77-11.952,0.663-23.936,0.704-35.904
		C211.906,160.134,205.71,161.603,199.657,160.747 M221.289,158.447c-0.362,11.738,0.066,23.513-0.923,35.236
		c1.259,0.255,2.544,0.342,3.834,0.301c5.115-10.882,9.286-22.177,13.753-33.334C232.329,161.547,226.403,161.098,221.289,158.447
		 M181.494,170.777c7.807,8.755,15.925,17.272,23.069,26.588c1.117-0.597,2.361-1.183,2.973-2.361
		c-0.122-1.26-0.602-2.448-0.979-3.641c-3.473-10.143-7.262-20.178-11.193-30.152C191.856,165.723,187.083,169.314,181.494,170.777
		 M241.4,163.087c-4.288,10.841-8.348,21.805-13.37,32.335c0.923,1.422,2.341,2.32,3.987,2.692c1.657-1.544,3.324-3.084,4.881-4.742
		c6.694-7.017,13.396-14.038,19.811-21.315C250.834,170.721,245.194,167.876,241.4,163.087 M177.587,172.603
		c-0.586,1.789-1.254,3.554-2.039,5.272c4.345,5.808,8.592,11.693,12.488,17.812c0.489,0.862,1.275,1.474,2.157,1.907
		c3.162,1.652,6.323,3.33,9.311,5.293c0.735-0.963,1.331-2.024,1.775-3.156C193.798,190.338,185.578,181.562,177.587,172.603
		 M250.972,184.52c-5.63,5.879-10.953,12.095-17.159,17.388c0.565,0.414,1.143,0.831,1.714,1.249
		c3.712-1.417,7.297-3.135,10.901-4.788c0.913-0.392,1.739-0.989,2.234-1.871c3.544-5.548,7.343-10.928,11.254-16.216
		c-0.643-1.132-1.275-2.269-1.887-3.411C255.689,179.43,253.328,181.975,250.972,184.52 M26.271,197.232
		c-1.627,22.606,0.387,45.506,6.394,67.378c9.617-2.888,19.245-5.743,28.873-8.604c-6.987-18.057-10.342-37.479-10.015-56.832
		C43.104,198.543,34.7,197.717,26.271,197.232 M210.774,197.737c-1.459,1.81-3.417,3.147-5.696,3.671
		c-0.76,2.086-1.999,3.983-3.87,5.232c-0.041,1.872-0.454,3.713-1.27,5.401c0.643,2.116,0.678,4.344,0.138,6.496
		c0.979,0.774,1.947,2.076,3.37,1.76c1.999-0.475,3.259-2.249,4.636-3.631c-0.505,3.406-1.092,6.802-1.693,10.193
		c0.489,0.719,0.973,1.447,1.453,2.188c2.254,0.168,4.406,0.923,6.216,2.295c2.234-0.479,4.543-0.418,6.686,0.417
		c1.744-1.732,3.891-3.013,6.343-3.421c0.883-1.204,1.882-2.31,2.984-3.313c-0.408-2.627-0.867-5.238-1.271-7.864
		c1.188,1.423,2.535,2.739,4.217,3.575c0.082-2.621,0.139-5.365,1.708-7.598c-1.422-2.009-2.146-4.385-2.064-6.848
		c-1.652-1.209-2.917-2.841-3.707-4.722c-1.643-0.857-3.08-2.04-4.187-3.529c-2.392,0.285-4.835,0.015-6.945-1.209
		C215.639,197.967,213.17,198.267,210.774,197.737 M385.339,201.312c0.226,19.78-3.569,39.596-11.061,57.903
		c8.954,2.427,17.909,4.875,26.873,7.271c5.89-21.928,8.047-44.864,6.196-67.495C400.015,199.767,392.677,200.531,385.339,201.312
		 M193.125,203.825c1.153,1.786,1.719,4.162,3.712,5.248c0.113-0.954,0.199-1.902,0.276-2.856
		C195.797,205.396,194.466,204.601,193.125,203.825 M236.719,207.018c0.185,1.351,0.689,2.616,1.418,3.763
		c0.709-0.025,1.429-0.051,2.142-0.076c1.157-2.254,2.428-4.452,3.691-6.645C241.584,205.111,239.208,206.207,236.719,207.018
		 M237.596,214.56c0.123,0.372,0.245,0.749,0.378,1.132c-0.316,0.841-0.617,1.691-0.893,2.549c0.638-1.061,1.188-2.172,1.703-3.299
		C238.483,214.85,237.892,214.656,237.596,214.56 M231.666,233.463c-0.204-1.158-0.434-2.3-0.704-3.432
		C230.08,231.199,231.11,232.407,231.666,233.463 M224.236,235.319c1.428,11.545,3.718,22.962,5.736,34.415
		c2.942-2.621,6.364-4.682,10.097-5.956c-1.417-3.982-2.733-7.996-3.88-12.061c-0.53-1.851-0.894-3.789-1.917-5.439
		c-2.725-4.515-5.381-9.072-7.772-13.77C225.633,233.32,223.818,233.825,224.236,235.319 M203.722,239.495
		c-1.907,8.547-4.437,16.939-7.389,25.176c2.534,0.912,4.941,2.151,7.124,3.733c2.309-11.511,4.191-23.137,7.353-34.457
		c-1.097-0.321-2.208-0.79-3.371-0.627C205.797,235.074,204.19,237.078,203.722,239.495 M219.279,235.651
		c-1.606-0.634-4.701-1.158-5.054,1.188c-2.825,11.233-4.818,22.656-7.052,34.018c5.981-2.315,12.774-2.575,18.786-0.225
		c-2.086-11.974-4.584-23.9-5.87-35.997C219.886,234.885,219.479,235.396,219.279,235.651 M33.354,268.715
		c6.506,21.183,16.317,41.385,29.377,59.311c10.448-8.089,20.902-16.171,31.35-24.259c-13.676-11.876-23.926-27.326-30.978-43.93
		C53.185,262.794,43.256,265.716,33.354,268.715 M340.337,306.337c10.076,7.425,20.138,14.87,30.239,22.254
		c12.82-17.639,22.876-37.312,29.336-58.147c-9.087-2.488-18.194-4.921-27.275-7.419
		C365.191,279.561,354.493,294.863,340.337,306.337 M230.886,274.701c2.157,11.54,4.35,23.075,6.552,34.604
		c5.737-5.456,12.77-9.663,20.562-11.341c-7.058-9.163-12.326-19.565-16.492-30.314
		C237.382,268.959,233.818,271.565,230.886,274.701 M194.869,268.515c-4.334,10.72-9.694,21.133-16.96,30.179
		c6.746,1.474,13.049,4.707,18.21,9.291c2.111-11.638,4.222-23.278,6.45-34.89C200.351,271.045,197.71,269.525,194.869,268.515
		 M206.21,275.787c-2.111,11.564-4.289,23.116-6.374,34.681c3.621-1.442,7.369-2.616,11.239-3.172
		c7.562-1.178,15.379,0.03,22.381,3.059c-2.224-11.554-4.411-23.114-6.573-34.675c-2.392-1.203-4.921-2.232-7.608-2.493
		C214.752,272.6,210.274,273.905,206.21,275.787 M238.402,314.277c2.824,14.613,5.681,29.224,8.571,43.822
		c5.079-6.088,11.239-11.412,18.46-14.798c8.235-3.993,17.623-5.099,26.659-4.115c-4.891-7.761-9.816-15.507-14.686-23.278
		c-0.704-1.198-1.968-1.835-3.091-2.56c-5.043-3.196-9.372-7.369-13.375-11.764C252.165,302.87,244.353,307.846,238.402,314.277
		 M156.028,316.505c-0.939,0.362-1.673,1.05-2.132,1.938c-4.354,7.251-8.791,14.457-13.141,21.713
		c9.179-1.291,18.781-0.688,27.424,2.835c7.461,2.982,13.947,8.052,19.154,14.125c2.6-14.752,5.216-29.504,7.898-44.242
		c-5.431-5.614-12.662-9.423-20.397-10.601C169.521,308.117,163.223,313.18,156.028,316.505 M65.556,331.094
		c13.686,17.455,30.188,32.743,48.856,44.747c6.798-11.341,13.595-22.682,20.494-33.957c-1.973-7.291-5.395-14.271-10.479-19.896
		c-1.203-1.312-2.381-2.847-4.192-3.311c-6.858-2.085-13.309-5.41-19.157-9.535c-1.423-1.087-3.228-1.346-4.927-1.702
		C85.912,315.271,75.744,323.196,65.556,331.094 M313.173,320.111c-0.861,0.254-1.866,0.366-2.463,1.115
		c-5.568,6.109-9.112,13.783-11.361,21.673c6.895,10.871,13.789,21.743,20.725,32.59c18.234-11.794,34.689-26.409,48.188-43.446
		c-10.458-7.695-20.917-15.385-31.355-23.105C329.746,314.017,321.776,318.147,313.173,320.111 M198.949,315.393
		c-2.652,14.656-5.278,29.312-7.838,43.982c6.935-3.794,14.558-6.543,22.493-7.094c10.336-0.876,20.693,2.224,29.515,7.517
		c-2.912-14.793-5.839-29.581-8.669-44.384c-4.891-2.494-10.234-4.222-15.747-4.442
		C211.855,310.585,205.093,312.502,198.949,315.393 M283.852,318.362c4.151,6.674,8.39,13.293,12.585,19.942
		c2.051-6.022,4.892-11.815,8.781-16.874C297.972,321.987,290.639,320.962,283.852,318.362 M128.649,320.595
		c4.064,4.859,7.007,10.54,9.154,16.477c3.533-5.932,7.154-11.812,10.719-17.721C142.066,321.115,135.273,321.462,128.649,320.595
		 M269.63,345.908c-8.806,3.457-15.976,10.086-21.611,17.551c2.51,12.621,5.023,25.238,7.542,37.853
		c21.474-4.405,42.254-12.259,61.151-23.38c-7.22-11.372-14.502-22.708-21.641-34.125
		C286.611,342.252,277.651,342.649,269.63,345.908 M137.945,344.801c-6.68,10.994-13.298,22.029-19.943,33.049
		c18.995,11.306,39.826,19.581,61.488,24.055c2.223-12.893,4.508-25.773,6.746-38.659c0.24-0.729-0.413-1.285-0.755-1.83
		c-5.405-6.848-12.483-12.585-20.82-15.396C156.104,343.006,146.767,343.083,137.945,344.801 M190.127,364.801
		c-2.198,12.672-4.447,25.338-6.609,38.021c22.508,3.748,45.654,3.854,68.132-0.195c-2.479-12.651-5.155-25.262-7.501-37.933
		c-1.117-0.122-2.122-0.633-3.05-1.229c-7.439-4.585-16.094-7.491-24.899-7.267C206.878,356.366,197.939,359.89,190.127,364.801"/>
</g>
</svg>
