<svg width="429" height="429" viewBox="0 0 429 429" fill="none" xmlns="http://www.w3.org/2000/svg">
<mask id="mask0_49014_240" style="mask-type:luminance" maskUnits="userSpaceOnUse" x="0" y="0" width="429" height="429">
<path d="M428.563 0H0V428.747H428.563V0Z" fill="white"/>
</mask>
<g mask="url(#mask0_49014_240)">
<path d="M165.395 17.405C201.376 8.05301 239.911 8.68501 275.54 19.322C308.564 29.113 338.863 47.669 362.835 72.37C386.363 96.444 403.823 126.428 412.891 158.86C424.599 200.542 422.758 245.967 407.414 286.475C397.082 313.906 380.622 338.978 359.689 359.489C336.859 382.098 308.564 399.166 277.871 408.707C259.605 414.448 240.517 417.402 221.391 417.911H212.528C197.24 417.457 181.968 415.545 167.134 411.777C133.489 403.413 102.199 386.045 77.106 362.15C51.915 338.326 32.854 308.009 22.66 274.844C11.666 239.312 10.667 200.776 19.631 164.688C24.486 145.189 32.288 126.428 42.695 109.239C59.585 81.33 83.235 57.547 111.057 40.515C127.9 30.194 146.273 22.372 165.395 17.405ZM150.01 35.242C154.845 47.241 159.643 59.255 164.467 71.259C172.244 74.446 180.759 76.292 189.178 75.221C199.571 73.967 209.04 68.505 216.567 61.412C216.541 48.547 216.255 35.686 216.169 22.821C193.635 23.29 171.132 27.318 150.01 35.242ZM220.249 22.948C220.356 35.447 220.621 47.945 220.626 60.443C220.692 61.427 220.564 62.611 221.478 63.258C227.75 68.918 235.378 73.303 243.747 74.895C253.237 76.761 263.073 74.951 271.967 71.437C276.459 59.387 280.977 47.348 285.47 35.299C264.607 27.629 242.481 23.33 220.249 22.948ZM89.568 71.31C93.286 75.389 97.095 79.382 100.853 83.421C104.576 79.326 108.512 75.44 112.48 71.59C109.767 77.536 107.696 83.951 107.89 90.56C108.105 91.32 108.737 91.86 109.231 92.447C111.745 95.062 114.178 97.755 116.681 100.381C124.84 100.259 133.162 98.836 140.337 94.772C149.383 89.866 155.931 81.422 160.454 72.345C155.676 60.397 150.872 48.46 146.079 36.517C125.483 44.87 106.279 56.655 89.568 71.31ZM289.257 36.91C284.765 49.015 280.237 61.106 275.698 73.197C279.435 81.315 285.035 88.759 292.572 93.691C300.823 99.096 310.899 101.309 320.669 101.044C323.678 98.265 326.13 94.905 328.997 91.972C329.308 85.088 327.319 78.352 324.427 72.172C328.512 75.889 332.291 79.927 336.079 83.941C339.46 80.223 342.744 76.425 346.105 72.692C345.548 71.932 345.033 71.126 344.356 70.473C327.946 56.44 309.323 44.926 289.257 36.91ZM195.716 78.087C186.114 80.657 175.838 79.734 166.532 76.455C172.096 90.437 177.659 104.425 183.187 118.423C190.55 120.483 198.571 120.462 205.766 117.729C209.764 116.184 213.691 114.19 216.995 111.447C216.985 96.608 216.776 81.748 216.679 66.899C210.529 71.963 203.466 76.068 195.716 78.087ZM220.758 68.102C220.911 83.099 221.049 98.096 221.115 113.093C224.292 115.373 227.8 117.214 231.538 118.377C238.871 120.794 246.851 120.329 254.225 118.351C259.524 104.435 264.796 90.514 270.018 76.567C262.482 79.025 254.455 80.325 246.536 79.413C237.025 78.413 228.076 74.16 220.758 68.102ZM46.632 126.816C52.981 129.937 59.37 132.986 65.744 136.056C73.822 117.968 84.954 101.319 98.079 86.511C94.239 82.426 90.41 78.326 86.59 74.221C70.497 89.387 56.836 107.189 46.632 126.816ZM338.879 87.056C351.739 101.697 362.81 118.014 370.785 135.826C376.42 132.996 382.029 130.105 387.623 127.193C377.598 108.116 364.742 90.427 349.102 75.557C345.691 79.387 342.29 83.222 338.879 87.056ZM146.416 95.781C138.817 101.207 129.537 103.843 120.287 104.353C130.633 115.271 140.735 126.418 151.015 137.392C154.289 136.907 157.547 136.188 160.612 134.919C168.358 131.89 174.513 125.837 178.949 118.927C173.478 105.077 167.975 91.238 162.478 77.398C158.46 84.532 153.167 91.07 146.416 95.781ZM273.684 78.566C268.397 92.62 263.098 106.674 257.754 120.707C260.106 124.388 262.976 127.754 266.402 130.477C272.347 135.235 279.839 137.647 287.335 138.468C297.273 127.377 307.258 116.332 317.141 105.184C308.558 104.751 299.92 102.778 292.455 98.407C284.377 93.839 278.167 86.597 273.684 78.566ZM108.793 98.107C109.629 101.218 110.72 104.282 112.327 107.087C112.521 105.542 112.995 103.956 112.76 102.395C111.623 100.809 110.144 99.504 108.793 98.107ZM321.664 106.352C321.888 107.969 322.148 109.585 322.449 111.192C324.861 107.592 326.707 103.619 327.864 99.443C325.769 101.717 323.744 104.063 321.664 106.352ZM115.544 112.41C119.624 117.877 124.544 122.68 129.919 126.867C131.806 128.351 133.861 129.646 135.503 131.415C139.078 135.189 142.616 138.998 146.13 142.828C146.426 141.624 146.716 140.416 147.007 139.212C136.905 128.264 126.783 117.331 116.63 106.429C116.289 108.427 115.932 110.422 115.544 112.41ZM288.202 143.654C288.345 144.118 288.62 145.046 288.758 145.51C291.986 142.027 295.172 138.509 298.442 135.061C300.294 133.159 301.975 131.058 304.153 129.498C309.732 125.454 314.944 120.84 319.329 115.51C318.891 113.802 318.488 112.089 318.085 110.376C308.135 121.477 298.217 132.609 288.202 143.654ZM206.292 121.895C199.479 124.236 192.049 124.521 185.012 123.104C189.357 134.088 193.646 145.097 197.888 156.127C200.377 156.728 202.957 157.024 205.517 156.759C209.81 156.387 213.635 154.235 217.184 151.95C217.282 140.166 216.955 128.391 217.067 116.607C213.675 118.749 210.111 120.646 206.292 121.895ZM221.13 118.116C221.182 129.962 221.34 141.798 221.263 153.643C226.673 157.315 233.615 157.723 239.784 155.979C244.022 145.005 248.259 134.031 252.445 123.037C241.864 125.373 230.376 123.929 221.13 118.116ZM154.33 141.038C162.361 149.753 170.367 158.498 178.347 167.259C180.647 166.728 182.967 166.111 185.033 164.923C188.612 162.97 191.315 159.808 193.625 156.509C189.372 145.525 185.084 134.556 180.785 123.593C174.594 132.491 165.069 139.11 154.33 141.038ZM255.939 125.454C251.884 136.092 247.815 146.729 243.665 157.33C243.527 157.84 243.149 158.442 243.573 158.931C247.095 164.688 253.725 167.672 260.252 168.355C268.08 159.61 276.147 151.068 283.832 142.196C280.064 141.436 276.295 140.533 272.766 138.972C266.03 136.148 260.242 131.329 255.939 125.454ZM26.587 193.056C34.95 193.739 43.317 194.392 51.68 195.086C52.41 176.126 56.82 157.371 64.103 139.875C57.672 136.734 51.222 133.634 44.761 130.543C35.378 150.217 29.136 171.404 26.587 193.056ZM372.483 139.594C380.152 157.82 384.65 177.391 385.328 197.166C392.702 196.452 400.065 195.611 407.433 194.866C404.991 172.766 398.948 151.048 389.392 130.956C383.748 133.817 378.153 136.785 372.483 139.594ZM150.393 142.874C150.046 144.047 149.71 145.229 149.358 146.407C157.456 155.387 165.252 164.637 172.718 174.148C173.304 172.419 173.814 170.67 174.263 168.895C166.293 160.237 158.368 151.527 150.393 142.874ZM261.094 173.566C261.584 174.627 262.083 175.688 262.588 176.748C269.916 167.248 277.595 158.013 285.617 149.09C285.413 148.457 285.214 147.83 285.014 147.203C277.08 156.03 269.08 164.79 261.094 173.566ZM93.933 149.248C87.947 165.142 83.74 181.761 82.072 198.68C80.522 214.141 81.236 229.914 85.055 245.013C87.952 256.273 92.546 267.215 99.486 276.598C105.045 284.115 112.21 290.653 120.802 294.492C128.099 297.797 136.472 298.827 144.289 296.94C151.928 295.201 158.725 290.841 164.339 285.476C170.581 279.382 175.415 271.989 179.271 264.202C184.008 254.514 187.333 244.193 189.765 233.703C178.816 212.776 162.442 195.112 143.999 180.553C128.512 168.34 111.572 158.034 93.933 149.248ZM281.863 190.399C267.983 202.954 255.842 217.594 247.122 234.202C250.028 246.655 254.138 258.924 260.482 270.076C264.531 277.113 269.512 283.726 275.831 288.887C282.542 294.442 290.971 298.25 299.777 298.363C307.656 298.637 315.437 296.021 322.025 291.8C330.022 286.696 336.406 279.373 341.296 271.306C350.883 255.294 355.024 236.513 355.533 217.993C356.079 194.664 351.122 171.468 342.943 149.699C321.077 160.777 300.068 173.898 281.863 190.399ZM199.657 160.747C203.757 171.659 208.178 182.48 211.519 193.657C213.211 194.116 214.919 193.795 216.373 192.826C217.143 180.874 217.036 168.89 217.077 156.922C211.906 160.134 205.71 161.603 199.657 160.747ZM221.289 158.447C220.927 170.185 221.355 181.96 220.366 193.683C221.625 193.938 222.91 194.025 224.2 193.984C229.315 183.102 233.486 171.807 237.953 160.65C232.329 161.547 226.403 161.098 221.289 158.447ZM181.494 170.777C189.301 179.532 197.419 188.049 204.563 197.365C205.68 196.768 206.924 196.182 207.536 195.004C207.414 193.744 206.934 192.556 206.557 191.363C203.084 181.22 199.295 171.185 195.364 161.211C191.856 165.723 187.083 169.314 181.494 170.777ZM241.4 163.087C237.112 173.928 233.052 184.892 228.03 195.422C228.953 196.844 230.371 197.742 232.017 198.114C233.674 196.57 235.341 195.03 236.898 193.372C243.592 186.355 250.294 179.334 256.709 172.057C250.834 170.721 245.194 167.876 241.4 163.087ZM177.587 172.603C177.001 174.392 176.333 176.157 175.548 177.875C179.893 183.683 184.14 189.568 188.036 195.687C188.525 196.549 189.311 197.161 190.193 197.594C193.355 199.246 196.516 200.924 199.504 202.887C200.239 201.924 200.835 200.863 201.279 199.731C193.798 190.338 185.578 181.562 177.587 172.603ZM250.972 184.52C245.342 190.399 240.019 196.615 233.813 201.908C234.378 202.322 234.956 202.739 235.527 203.157C239.239 201.74 242.824 200.022 246.428 198.369C247.341 197.977 248.167 197.38 248.662 196.498C252.206 190.95 256.005 185.57 259.916 180.282C259.273 179.15 258.641 178.013 258.029 176.871C255.689 179.43 253.328 181.975 250.972 184.52ZM26.271 197.232C24.644 219.838 26.658 242.738 32.665 264.61C42.282 261.722 51.91 258.867 61.538 256.006C54.551 237.949 51.196 218.527 51.523 199.174C43.104 198.543 34.7 197.717 26.271 197.232ZM210.774 197.737C209.315 199.547 207.357 200.884 205.078 201.408C204.318 203.494 203.079 205.391 201.208 206.64C201.167 208.512 200.754 210.353 199.938 212.041C200.581 214.157 200.616 216.385 200.076 218.537C201.055 219.311 202.023 220.613 203.446 220.297C205.445 219.822 206.705 218.048 208.082 216.666C207.577 220.072 206.99 223.468 206.389 226.859C206.878 227.578 207.362 228.306 207.842 229.047C210.096 229.215 212.248 229.97 214.058 231.342C216.292 230.863 218.601 230.924 220.744 231.759C222.488 230.027 224.635 228.746 227.087 228.338C227.97 227.134 228.969 226.028 230.071 225.025C229.663 222.398 229.204 219.787 228.8 217.161C229.988 218.584 231.335 219.9 233.017 220.736C233.099 218.115 233.156 215.371 234.725 213.138C233.303 211.129 232.579 208.753 232.661 206.29C231.009 205.081 229.744 203.449 228.954 201.568C227.311 200.711 225.874 199.528 224.767 198.039C222.375 198.324 219.932 198.054 217.822 196.83C215.639 197.967 213.17 198.267 210.774 197.737ZM385.339 201.312C385.565 221.092 381.77 240.908 374.278 259.215C383.232 261.642 392.187 264.09 401.151 266.486C407.041 244.558 409.198 221.622 407.347 198.991C400.015 199.767 392.677 200.531 385.339 201.312ZM193.125 203.825C194.278 205.611 194.844 207.987 196.837 209.073C196.95 208.119 197.036 207.171 197.113 206.217C195.797 205.396 194.466 204.601 193.125 203.825ZM236.719 207.018C236.904 208.369 237.408 209.634 238.137 210.781C238.846 210.756 239.566 210.73 240.279 210.705C241.436 208.451 242.707 206.253 243.97 204.06C241.584 205.111 239.208 206.207 236.719 207.018ZM237.596 214.56C237.719 214.932 237.841 215.309 237.974 215.692C237.658 216.533 237.357 217.383 237.081 218.241C237.719 217.18 238.269 216.069 238.784 214.942C238.483 214.85 237.892 214.656 237.596 214.56ZM231.666 233.463C231.462 232.305 231.232 231.163 230.962 230.031C230.08 231.199 231.11 232.407 231.666 233.463ZM224.236 235.319C225.664 246.864 227.954 258.281 229.972 269.734C232.914 267.113 236.336 265.052 240.069 263.778C238.652 259.796 237.336 255.782 236.189 251.717C235.659 249.866 235.295 247.928 234.272 246.278C231.547 241.763 228.891 237.206 226.5 232.508C225.633 233.32 223.818 233.825 224.236 235.319ZM203.722 239.495C201.815 248.042 199.285 256.434 196.333 264.671C198.867 265.583 201.274 266.822 203.457 268.404C205.766 256.893 207.648 245.267 210.81 233.947C209.713 233.626 208.602 233.157 207.439 233.32C205.797 235.074 204.19 237.078 203.722 239.495ZM219.279 235.651C217.673 235.017 214.578 234.493 214.225 236.839C211.4 248.072 209.407 259.495 207.173 270.857C213.154 268.542 219.947 268.282 225.959 270.632C223.873 258.658 221.375 246.732 220.089 234.635C219.886 234.885 219.479 235.396 219.279 235.651ZM33.354 268.715C39.86 289.898 49.671 310.1 62.731 328.026C73.179 319.937 83.633 311.855 94.081 303.767C80.405 291.891 70.155 276.441 63.103 259.837C53.185 262.794 43.256 265.716 33.354 268.715ZM340.337 306.337C350.413 313.762 360.475 321.207 370.576 328.591C383.396 310.952 393.452 291.279 399.912 270.444C390.825 267.956 381.718 265.523 372.637 263.025C365.191 279.561 354.493 294.863 340.337 306.337ZM230.886 274.701C233.043 286.241 235.236 297.776 237.438 309.305C243.175 303.849 250.208 299.642 258 297.964C250.942 288.801 245.674 278.399 241.508 267.65C237.382 268.959 233.818 271.565 230.886 274.701ZM194.869 268.515C190.535 279.235 185.175 289.648 177.909 298.694C184.655 300.168 190.958 303.401 196.119 307.985C198.23 296.347 200.341 284.707 202.569 273.095C200.351 271.045 197.71 269.525 194.869 268.515ZM206.21 275.787C204.099 287.351 201.921 298.903 199.836 310.468C203.457 309.026 207.205 307.852 211.075 307.296C218.637 306.118 226.454 307.326 233.456 310.355C231.232 298.801 229.045 287.241 226.883 275.68C224.491 274.477 221.962 273.448 219.275 273.187C214.752 272.6 210.274 273.905 206.21 275.787ZM238.402 314.277C241.226 328.89 244.083 343.501 246.973 358.099C252.052 352.011 258.212 346.687 265.433 343.301C273.668 339.308 283.056 338.202 292.092 339.186C287.201 331.425 282.276 323.679 277.406 315.908C276.702 314.71 275.438 314.073 274.315 313.348C269.272 310.152 264.943 305.979 260.94 301.584C252.165 302.87 244.353 307.846 238.402 314.277ZM156.028 316.505C155.089 316.867 154.355 317.555 153.896 318.443C149.542 325.694 145.105 332.9 140.755 340.156C149.934 338.865 159.536 339.468 168.179 342.991C175.64 345.973 182.126 351.043 187.333 357.116C189.933 342.364 192.549 327.612 195.231 312.874C189.8 307.26 182.569 303.451 174.834 302.273C169.521 308.117 163.223 313.18 156.028 316.505ZM65.556 331.094C79.242 348.549 95.744 363.837 114.412 375.841C121.21 364.5 128.007 353.159 134.906 341.884C132.933 334.593 129.511 327.613 124.427 321.988C123.224 320.676 122.046 319.141 120.235 318.677C113.377 316.592 106.926 313.267 101.078 309.142C99.655 308.055 97.85 307.796 96.151 307.44C85.912 315.271 75.744 323.196 65.556 331.094ZM313.173 320.111C312.312 320.365 311.307 320.477 310.71 321.226C305.142 327.335 301.598 335.009 299.349 342.899C306.244 353.77 313.138 364.642 320.074 375.489C338.308 363.695 354.763 349.08 368.262 332.043C357.804 324.348 347.345 316.658 336.907 308.938C329.746 314.017 321.776 318.147 313.173 320.111ZM198.949 315.393C196.297 330.049 193.671 344.705 191.111 359.375C198.046 355.581 205.669 352.832 213.604 352.281C223.94 351.405 234.297 354.505 243.119 359.798C240.207 345.005 237.28 330.217 234.45 315.414C229.559 312.92 224.216 311.192 218.703 310.972C211.855 310.585 205.093 312.502 198.949 315.393ZM283.852 318.362C288.003 325.036 292.242 331.655 296.437 338.304C298.488 332.282 301.329 326.489 305.218 321.43C297.972 321.987 290.639 320.962 283.852 318.362ZM128.649 320.595C132.713 325.454 135.656 331.135 137.803 337.072C141.336 331.14 144.957 325.26 148.522 319.351C142.066 321.115 135.273 321.462 128.649 320.595ZM269.63 345.908C260.824 349.365 253.654 355.994 248.019 363.459C250.529 376.08 253.042 388.697 255.561 401.312C277.035 396.907 297.815 389.053 316.712 377.932C309.492 366.56 302.21 355.224 295.071 343.807C286.611 342.252 277.651 342.649 269.63 345.908ZM137.945 344.801C131.265 355.795 124.647 366.83 118.002 377.85C136.997 389.156 157.828 397.431 179.49 401.905C181.713 389.012 183.998 376.132 186.236 363.246C186.476 362.517 185.823 361.961 185.481 361.416C180.076 354.568 172.998 348.831 164.661 346.02C156.104 343.006 146.767 343.083 137.945 344.801ZM190.127 364.801C187.929 377.473 185.68 390.139 183.518 402.822C206.026 406.57 229.172 406.676 251.65 402.627C249.171 389.976 246.495 377.365 244.149 364.694C243.032 364.572 242.027 364.061 241.099 363.465C233.66 358.88 225.005 355.974 216.2 356.198C206.878 356.366 197.939 359.89 190.127 364.801Z" fill="black"/>
</g>
</svg>
